<?xml version="1.0" encoding="iso-8859-1"?>
<!-- Generator: Adobe Illustrator 17.1.0, SVG Export Plug-In . SVG Version: 6.00 Build 0)  -->
<svg version="1.1" xmlns="http://www.w3.org/2000/svg" xmlns:xlink="http://www.w3.org/1999/xlink" x="0px" y="0px"
	 viewBox="0 0 465.002 465.002" xml:space="preserve">
<g>
	<path d="M231.945,287.811c-25.855,0-50.174-8.509-70.33-24.608c-3.238-2.585-7.956-2.057-10.541,1.179
		c-2.585,3.236-2.057,7.956,1.18,10.541c22.841,18.244,50.398,27.888,79.691,27.888c70.459,0,127.781-57.322,127.781-127.781
		S302.404,47.248,231.945,47.248S104.163,104.571,104.163,175.03c0,12.296,1.745,24.458,5.187,36.148
		c1.17,3.974,5.341,6.247,9.313,5.077c3.974-1.17,6.247-5.339,5.077-9.313c-3.037-10.314-4.576-21.051-4.576-31.912
		c0-62.188,50.594-112.782,112.782-112.782s112.781,50.594,112.781,112.782S294.133,287.811,231.945,287.811z"/>
	<path d="M345.528,364.734c-33.341-22.907-72.425-35.015-113.026-35.015s-79.685,12.108-113.026,35.015
		c-32.545,22.36-57.558,53.465-72.333,89.951c-1.555,3.839,0.297,8.212,4.137,9.767c3.84,1.556,8.212-0.297,9.767-4.137
		c28.436-70.222,95.736-115.596,171.456-115.596s143.02,45.374,171.456,115.596c1.181,2.917,3.989,4.687,6.954,4.687
		c0.938,0,1.891-0.177,2.813-0.55c3.839-1.555,5.691-5.927,4.137-9.767C403.085,418.199,378.073,387.094,345.528,364.734z"/>
	<path d="M399.958,131.517C381.568,56.128,313.472,0,232.501,0S83.434,56.128,65.044,131.517
		c-21.364,1.346-38.336,19.145-38.336,40.842c0,21.685,16.951,39.475,38.296,40.84c2.4,9.866,5.676,19.52,9.835,28.907
		c1.22,2.753,3.936,4.458,6.852,4.458c0.099,0,0.198-0.002,0.297-0.006h149.957c4.142,0,7.5-3.358,7.5-7.5s-3.358-7.5-7.5-7.5
		H86.654c-3.618-8.895-6.38-18.041-8.297-27.381c-0.008-0.043-0.018-0.086-0.027-0.129c-2.114-10.344-3.188-20.929-3.188-31.689
		C75.142,85.591,145.733,15,232.501,15s157.359,70.591,157.359,157.359c0,10.682-1.076,21.354-3.197,31.721
		c0,0.002-0.001,0.005-0.001,0.007c-0.054,0.258-0.096,0.521-0.122,0.789c-0.414,4.122,2.592,7.798,6.713,8.211
		c1.362,0.137,2.744,0.206,4.107,0.206c22.571,0,40.934-18.363,40.934-40.934C438.294,150.662,421.322,132.862,399.958,131.517z
		 M41.708,172.359c0-12.364,8.699-22.728,20.296-25.309c-1.221,8.263-1.863,16.712-1.863,25.31c0,8.545,0.626,16.987,1.847,25.306
		C50.399,195.077,41.708,184.717,41.708,172.359z M403.004,197.667c1.228-8.351,1.856-16.827,1.856-25.308
		c0-8.597-0.641-17.046-1.863-25.31c11.597,2.582,20.296,12.945,20.296,25.309C423.294,184.721,414.598,195.083,403.004,197.667z"/>
</g>
</svg>
