<svg viewBox="0 -12 512 512" xmlns="http://www.w3.org/2000/svg"><path d="m484.855469 172.074219h-10.570313v-42.710938c0-4.140625-3.355468-7.5-7.5-7.5-4.144531 0-7.5 3.359375-7.5 7.5v270.355469c0 2.441406-2.0625 4.5-4.5 4.5h-12.679687c-2.441407 0-4.5-2.058594-4.5-4.5 0-10.273438 0-368.371094 0-378.371094v-1.847656c0-2.441406 2.058593-4.5 4.5-4.5h12.679687c2.4375 0 4.5 2.058594 4.5 4.5v74.863281c0 4.144531 3.355469 7.5 7.5 7.5 4.144532 0 7.5-3.355469 7.5-7.5v-74.863281c0-10.753906-8.746094-19.5-19.5-19.5h-12.679687c-9.824219 0-17.953125 7.308594-19.289063 16.769531l-185.5625 100.730469c-3.023437-8.128906-10.839844-13.949219-20.007812-13.949219h-44.074219v-12.496093c0-11.417969-9.289063-20.707032-20.707031-20.707032h-10.269532c-11.417968 0-20.703124 9.289063-20.703124 20.707032v12.496093h-44.078126c-11.777343 0-21.359374 9.582031-21.359374 21.359375v11.253906h-39.28125c-9.25 0-16.773438 7.523438-16.773438 16.773438v113.347656c0 9.25 7.523438 16.773438 16.773438 16.773438h39.28125v11.25c0 11.777344 9.582031 21.359375 21.359374 21.359375h17.210938v143.136719c0 27.4375 35.382812 38.890624 36.375 23.269531.257812-4.132813-2.878906-7.695313-7.011719-7.957031-8.054687-.507813-14.363281-7.234376-14.363281-15.3125v-143.136719h69.683594c-3.648438 14.480469-21.425782 85.03125-23.292969 92.429687-1.753906 6.972656-.972656 14.367188 2.199219 20.816406l11.375 23.109376c4.773437 9.699218-1.679688 20.839843-11.933594 22.015624-4.113281.472657-7.066406 4.191407-6.59375 8.308594.472656 4.117188 4.207031 7.070313 8.304688 6.59375 20.253906-2.324218 33.15625-24.289062 23.683593-43.539062-12.125-24.632813-14.226562-26.75-12.488281-33.640625l13.496094-53.558594h9.554687c11.953125 0 22.496094-8.054687 25.636719-19.589844l6.757812-24.847656c5.179688-2.34375 9.253907-6.6875 11.246094-12.046875l185.5625 100.734375c1.335938 9.460937 9.464844 16.769531 19.289063 16.769531h12.679687c10.753906 0 19.5-8.75 19.5-19.5v-152.578125h10.570313c14.96875 0 27.144531-12.175781 27.144531-27.140625v-20.785156c0-14.96875-12.175781-27.144531-27.144531-27.144531zm-428.800781 95.984375h-39.28125c-.960938 0-1.773438-.8125-1.773438-1.773438v-12.125h12.351562c4.144532 0 7.5-3.359375 7.5-7.5 0-4.144531-3.355468-7.5-7.5-7.5h-12.351562v-21.066406h12.351562c4.144532 0 7.5-3.359375 7.5-7.5 0-4.144531-3.355468-7.5-7.5-7.5h-12.351562v-21.070312h12.351562c4.144532 0 7.5-3.355469 7.5-7.5 0-4.140626-3.355468-7.5-7.5-7.5h-12.351562v-14.085938c0-.960938.8125-1.773438 1.773438-1.773438h39.28125zm80.433593-177.003906c0-3.148438 2.5625-5.707032 5.707031-5.707032h10.269532c3.148437 0 5.707031 2.5625 5.707031 5.707032v12.496093h-21.683594zm68.285157 243.621093c-1.363282 5.019531-5.953126 8.527344-11.160157 8.527344h-5.773437c3.617187-14.34375 2.210937-8.769531 6.9375-27.535156h15.167968zm18.832031-205.304687v164.9375c0 3.566406-2.917969 6.359375-6.359375 6.359375h-139.832032c-3.503906 0-6.359374-2.851563-6.359374-6.359375 0-7.328125 0-164.847656 0-169.394532 0-3.507812 2.855468-6.363281 6.359374-6.363281h139.832032c3.507812 0 6.359375 2.855469 6.359375 6.363281zm199 255.894531-184-99.878906v-151.550781l184-99.882813zm74.394531-165.261719c0 6.695313-5.445312 12.140625-12.144531 12.140625h-10.570313v-45.066406h10.570313c6.695312 0 12.144531 5.445313 12.144531 12.140625zm0 0"/></svg>